<?xml version="1.0" encoding="UTF-8"?>
<svg version="1.1" xmlns="http://www.w3.org/2000/svg" width="256" height="256">
<path d="M0 0 C84.48 0 168.96 0 256 0 C256 84.48 256 168.96 256 256 C171.52 256 87.04 256 0 256 C0 171.52 0 87.04 0 0 Z " fill="#FEFEFE" transform="translate(0,0)"/>
<path d="M0 0 C3.26233121 1.42882214 5.40993909 3.17053252 7.90722656 5.69604492 C8.66191223 6.45410934 9.4165979 7.21217377 10.19415283 7.99320984 C11.00148865 8.81400528 11.80882446 9.63480072 12.640625 10.48046875 C13.48163757 11.32668289 14.32265015 12.17289703 15.18914795 13.04475403 C17.88088337 15.75430529 20.56586526 18.47042077 23.25 21.1875 C25.92066362 23.88589762 28.59280522 26.58278724 31.26800537 29.27668762 C32.93152597 30.95233414 34.5923676 32.63064603 36.25006104 34.3120575 C40.46417641 38.5620418 44.76159416 42.62685701 49.30023193 46.52854919 C51.22593956 48.19559077 53.05154087 49.93665184 54.84375 51.74609375 C55.44960937 52.35517578 56.05546875 52.96425781 56.6796875 53.59179688 C57.28039062 54.20087891 57.88109375 54.80996094 58.5 55.4375 C59.13164062 56.07365234 59.76328125 56.70980469 60.4140625 57.36523438 C61.94505774 58.90782806 63.47287667 60.45357314 65 62 C59.95411445 68.10361414 54.50367537 73.78165196 48.94042969 79.40966797 C47.88787408 80.47896728 46.84073837 81.55362613 45.79882812 82.63330078 C44.28139982 84.20519359 42.7484356 85.76026348 41.2109375 87.3125 C40.30649902 88.23675781 39.40206055 89.16101563 38.47021484 90.11328125 C36 92 36 92 33.87255859 91.97509766 C31.79430563 90.89288875 30.44980576 89.77717688 28.828125 88.0859375 C28.2501416 87.49312988 27.6721582 86.90032227 27.07666016 86.28955078 C26.4738623 85.65774902 25.87106445 85.02594727 25.25 84.375 C23.99408407 83.08669006 22.7362874 81.80021074 21.4765625 80.515625 C20.87489258 79.90138672 20.27322266 79.28714844 19.65332031 78.65429688 C17.1592912 76.15879462 14.51138845 73.87516858 11.8203125 71.59765625 C8.37714974 68.57565288 5.19946046 65.27604329 2 62 C-1.65464986 63.53392788 -3.94394 65.7262778 -6.703125 68.54296875 C-7.60160156 69.45240234 -8.50007813 70.36183594 -9.42578125 71.29882812 C-10.36756931 72.26134531 -11.30897355 73.22423819 -12.25 74.1875 C-22.66120862 84.7963898 -22.66120862 84.7963898 -27.421875 89.23828125 C-28.0209668 89.80200439 -28.62005859 90.36572754 -29.23730469 90.9465332 C-31 92 -31 92 -32.92114258 91.73358154 C-35.23238019 90.91799831 -36.31294691 90.05096745 -38.02441406 88.31616211 C-38.86483246 87.47540382 -38.86483246 87.47540382 -39.722229 86.61766052 C-40.31404968 86.01035599 -40.90587036 85.40305145 -41.515625 84.77734375 C-42.13145447 84.15726944 -42.74728394 83.53719513 -43.3817749 82.89833069 C-45.34500635 80.91832095 -47.29754436 78.92813081 -49.25 76.9375 C-50.58003748 75.59241465 -51.91075879 74.24800512 -53.2421875 72.90429688 C-56.50277537 69.61065094 -59.75381188 66.30783661 -63 63 C-59.56568458 58.92523683 -56.0883627 54.96117535 -52.3203125 51.1875 C-51.47339844 50.33929688 -50.62648438 49.49109375 -49.75390625 48.6171875 C-48.45259766 47.32167969 -48.45259766 47.32167969 -47.125 46 C-46.26519531 45.13632813 -45.40539062 44.27265625 -44.51953125 43.3828125 C-40.87261024 39.74142551 -37.23632108 36.14283568 -33.3046875 32.80859375 C-26.50133329 26.96514843 -20.31672347 20.41996164 -14 14.0625 C-12.63955682 12.69703255 -11.27888169 11.33179614 -9.91796875 9.96679688 C-6.6092969 6.64719114 -3.30378678 3.32446727 0 0 Z " fill="#C35363" transform="translate(127,35)"/>
<path d="M0 0 C2.34537784 1.24540222 3.89392031 2.67494639 5.74169922 4.58642578 C6.45970703 5.31861328 7.17771484 6.05080078 7.91748047 6.80517578 C8.65869141 7.57603516 9.39990234 8.34689453 10.16357422 9.14111328 C15.01285552 14.13682048 19.87507839 18.99309537 25.17822266 23.51000977 C27.54815204 25.56686041 29.72978593 27.76408161 31.91357422 30.01611328 C35.46837425 28.50769515 37.70917044 26.43977667 40.39794922 23.69189453 C41.25130859 22.82757813 42.10466797 21.96326172 42.98388672 21.07275391 C43.86818359 20.1671875 44.75248047 19.26162109 45.66357422 18.32861328 C62.98608763 0.65913558 62.98608763 0.65913558 67.91357422 0.01611328 C70.30847959 1.90138248 72.34035788 3.74270195 74.46435547 5.90283203 C75.08255661 6.51624954 75.70075775 7.12966705 76.33769226 7.76167297 C77.64233903 9.06291483 78.94068285 10.37050201 80.2331543 11.68383789 C82.21847014 13.69590673 84.2290009 15.67995216 86.24365234 17.66259766 C87.50632638 18.92857568 88.76744853 20.19610383 90.02685547 21.46533203 C90.63193436 22.06028976 91.23701324 22.6552475 91.86042786 23.26823425 C93.52026367 24.97583008 93.52026367 24.97583008 95.91357422 28.01611328 C95.47973418 31.41473831 94.30311955 32.98827845 91.85107422 35.32861328 C91.30322266 35.86099609 90.75537109 36.39337891 90.19091797 36.94189453 C88.9167706 38.10239583 87.63411884 39.254269 86.32240295 40.37213135 C80.27632664 45.54219952 74.67658249 51.12483954 69.06982422 56.76220703 C68.05014713 57.78375375 67.03024566 58.80507654 66.01013184 59.82618713 C63.35132361 62.48877765 60.69553464 65.15435927 58.04040527 67.82061768 C55.32029029 70.55104 52.59727236 73.27856402 49.87451172 76.00634766 C44.55138559 81.34013528 39.23145204 86.67709244 33.91357422 92.01611328 C30.97115034 90.69042258 28.91096536 89.25618955 26.64892578 86.96264648 C25.72711517 86.03576775 25.72711517 86.03576775 24.78668213 85.09016418 C24.13246277 84.4224852 23.47824341 83.75480621 22.80419922 83.06689453 C22.11855896 82.3760527 21.4329187 81.68521088 20.72650146 80.97343445 C18.53405345 78.7631919 16.34838511 76.54640336 14.16357422 74.32861328 C11.99224302 72.12950025 9.81941758 69.93191962 7.64349365 67.73735046 C6.29154965 66.37333095 4.94228401 65.00664935 3.59625244 63.63679504 C-0.21049754 59.79040288 -4.14166573 56.17002759 -8.23883057 52.63539124 C-10.74914262 50.43529192 -13.10894568 48.10595264 -15.46142578 45.73876953 C-16.84394531 44.35141602 -16.84394531 44.35141602 -18.25439453 42.93603516 C-19.19846185 41.9836176 -20.1424716 41.03114298 -21.08642578 40.07861328 C-22.06144964 39.09856018 -23.03670858 38.11874088 -24.01220703 37.13916016 C-26.37259196 34.76709015 -28.73059483 32.39270468 -31.08642578 30.01611328 C-26.04054023 23.91249914 -20.59010115 18.23446132 -15.02685547 12.60644531 C-13.97429987 11.537146 -12.92716415 10.46248715 -11.88525391 9.3828125 C-10.3678256 7.81091969 -8.83486138 6.2558498 -7.29736328 4.70361328 C-5.94070557 3.31722656 -5.94070557 3.31722656 -4.55664062 1.90283203 C-2.08642578 0.01611328 -2.08642578 0.01611328 0 0 Z " fill="#AE427C" transform="translate(95.08642578125,128.98388671875)"/>
</svg>
